# xmcd
#
# Track frame offsets:
#	150
#	17867
#	30937
#	46207
#	61638
#	76868
#	92456
#	111374
#	128423
#	140897
#	155526
#
# Disc length: 2252 seconds
# Revision: 0
# Processed by: cddbd v1.5.2PL0 Copyright (c) Steve Scherf et al.
# Submitted via: dBpowerAMP V12.0
#
DISCID=7d08ca0b
DTITLE=Cendrio - Ma route 
DYEAR=2010
DGENRE=Chanson
TTITLE0=Fier
TTITLE1=Flavia
TTITLE2=Grand père
TTITLE3=Peureux
TTITLE4=Ma route
TTITLE5=Faisons le
TTITLE6=Il muro
TTITLE7=GR 70 Le voyage de Stevenson
TTITLE8=Sous mon Parapluie
TTITLE9=Paris Montpellier
TTITLE10=Wizz
EXTD=
EXTT0=
EXTT1=
EXTT2=
EXTT3=
EXTT4=
EXTT5=
EXTT6=
EXTT7=
EXTT8=
EXTT9=
EXTT10=
PLAYORDER=
